<svg width="800" height="219" viewBox="0 0 800 219" fill="none" xmlns="http://www.w3.org/2000/svg">
<path fill-rule="evenodd" clip-rule="evenodd" d="M113.748 0.0879727C53.368 -2.31203 2.48796 44.688 0.0879551 105.068C-2.31204 165.448 44.698 216.328 105.068 218.728C165.448 221.128 216.328 174.128 218.728 113.748C221.118 53.368 174.118 2.47797 113.748 0.0879727ZM159.928 160.368C158.568 162.768 155.918 163.968 153.338 163.608C152.548 163.498 151.758 163.238 151.018 162.818C136.558 154.588 120.798 149.228 104.178 146.888C87.558 144.548 70.928 145.358 54.758 149.288C51.248 150.138 47.718 147.988 46.868 144.478C46.018 140.968 48.168 137.438 51.678 136.588C69.458 132.268 87.738 131.378 105.998 133.948C124.258 136.518 141.578 142.408 157.488 151.458C160.618 153.248 161.718 157.228 159.938 160.368H159.928ZM174.308 131.648C172.078 135.768 166.918 137.308 162.798 135.078C145.878 125.928 127.558 119.918 108.348 117.218C89.138 114.518 69.878 115.248 51.088 119.378C50.068 119.598 49.058 119.638 48.078 119.498C44.668 119.018 41.748 116.478 40.968 112.908C39.958 108.328 42.858 103.798 47.438 102.788C68.208 98.218 89.498 97.408 110.718 100.388C131.928 103.368 152.178 110.008 170.878 120.128C175.008 122.358 176.538 127.508 174.308 131.638V131.648ZM190.248 99.268C188.148 103.308 183.778 105.398 179.518 104.798C178.368 104.638 177.238 104.278 176.148 103.718C156.448 93.468 135.228 86.698 113.078 83.588C90.928 80.478 68.658 81.138 46.898 85.558C41.238 86.708 35.728 83.048 34.578 77.398C33.428 71.738 37.088 66.228 42.738 65.078C66.838 60.188 91.478 59.458 115.988 62.898C140.498 66.338 163.978 73.838 185.798 85.188C190.918 87.848 192.908 94.158 190.248 99.278V99.268Z" fill="white"/>
<path fill-rule="evenodd" clip-rule="evenodd" d="M306.768 166.588C287.898 166.588 271.698 160.058 264.928 152.638C264.288 151.908 264.198 151.508 264.198 150.618V128.528C264.198 127.478 265.088 127.078 265.808 127.968C273.948 138.128 291.288 146.428 305.478 146.428C316.768 146.428 324.348 143.368 324.348 133.368C324.348 127.398 321.528 123.528 306.128 119.178L297.258 116.678C276.698 110.878 264.198 104.018 264.198 84.348C264.198 66.938 280.318 51.618 307.248 51.618C320.468 51.618 333.608 55.728 341.188 61.378C341.828 61.858 342.078 62.348 342.078 63.228V83.308C342.078 84.678 340.948 85.078 339.898 84.198C333.768 79.118 321.918 72.268 307.888 72.268C293.858 72.268 287.248 78.558 287.248 84.358C287.248 90.488 291.518 92.178 306.758 96.698L314.338 98.958C337.798 105.968 347.398 115.808 347.398 132.098C347.398 153.058 329.988 166.608 306.768 166.608V166.588ZM471.158 124.498C471.158 111.678 480.028 102.168 492.528 102.168C505.028 102.168 513.808 111.678 513.808 124.498C513.808 137.318 504.938 146.828 492.528 146.828C480.118 146.828 471.158 137.318 471.158 124.498ZM492.438 166.588C518.478 166.588 536.618 147.968 536.618 124.498C536.618 101.028 518.478 82.408 492.438 82.408C466.398 82.408 448.338 100.868 448.338 124.498C448.338 148.128 466.318 166.588 492.438 166.588ZM649.658 77.578V84.348H635.948C635.218 84.348 634.818 84.748 634.818 85.478V101.598C634.818 102.328 635.218 102.728 635.948 102.728H649.658V163.518C649.658 164.248 650.058 164.648 650.788 164.648H671.428C672.158 164.648 672.558 164.248 672.558 163.518V102.728H690.218L715.858 158.438L702.068 188.748C701.668 189.638 702.148 190.038 702.958 190.038H724.968C725.698 190.038 726.018 189.878 726.338 189.148L771.888 85.628C772.208 84.898 771.808 84.338 770.998 84.338H750.358C749.628 84.338 749.308 84.498 748.988 85.228L728.188 135.218L707.308 85.228C706.988 84.498 706.668 84.338 705.938 84.338H672.558V79.018C672.558 70.308 678.448 66.278 686.018 66.278C690.528 66.278 695.448 68.618 698.918 70.708C699.728 71.188 700.288 70.628 699.968 69.898L692.708 52.568C692.468 52.008 692.148 51.678 691.578 51.358C688.028 49.508 682.228 47.888 676.578 47.888C659.488 47.888 649.648 60.948 649.648 77.558L649.658 77.578ZM406.658 166.098C427.298 166.098 442.128 148.278 442.128 124.338C442.128 100.398 427.128 82.898 406.488 82.898C391.168 82.898 382.298 92.248 377.138 101.598V85.478C377.138 84.748 376.738 84.348 376.008 84.348H355.768C355.038 84.348 354.638 84.748 354.638 85.478V188.918C354.638 189.648 355.038 190.048 355.768 190.048H376.008C376.738 190.048 377.138 189.648 377.138 188.918V147.558C382.298 156.908 391.008 166.098 406.648 166.098H406.658ZM578.868 165.778C585.638 165.778 592.168 164.008 596.038 161.748C596.598 161.428 596.678 161.108 596.678 160.538V145.218C596.678 144.408 596.278 144.168 595.548 144.578C593.208 145.868 590.148 146.918 585.958 146.918C579.348 146.918 575.158 143.048 575.158 134.498V102.728H595.318C596.048 102.728 596.448 102.328 596.448 101.598V85.478C596.448 84.748 596.048 84.348 595.318 84.348H575.158V63.308C575.158 62.418 574.598 61.938 573.788 62.578L537.748 90.958C537.268 91.358 537.108 91.768 537.108 92.408V101.598C537.108 102.328 537.508 102.728 538.238 102.728H552.268V137.878C552.268 156.908 563.228 165.778 578.878 165.778H578.868ZM602.168 60.488C602.168 67.748 607.808 73.228 615.548 73.228C623.288 73.228 629.088 67.748 629.088 60.488C629.088 53.228 623.448 47.748 615.548 47.748C607.648 47.748 602.168 53.228 602.168 60.488ZM605.308 164.658H625.948C626.678 164.658 627.078 164.258 627.078 163.528V85.488C627.078 84.758 626.678 84.358 625.948 84.358H605.308C604.578 84.358 604.178 84.758 604.178 85.488V163.528C604.178 164.258 604.578 164.658 605.308 164.658ZM376.658 124.188C380.368 111.768 388.908 102.258 400.518 102.258C412.128 102.258 419.218 110.638 419.218 124.348C419.218 138.058 411.558 146.598 400.518 146.598C389.478 146.598 380.358 135.958 376.658 124.188Z" fill="white"/>
<path fill-rule="evenodd" clip-rule="evenodd" d="M798.328 89.0878C797.268 87.2578 795.798 85.8278 793.918 84.7878C792.038 83.7578 789.938 83.2378 787.598 83.2378C785.258 83.2378 783.158 83.7578 781.278 84.7878C779.398 85.8278 777.928 87.2578 776.868 89.0878C775.808 90.9178 775.278 92.9878 775.278 95.2978C775.278 97.6078 775.808 99.6378 776.868 101.468C777.928 103.298 779.398 104.728 781.278 105.768C783.158 106.808 785.258 107.318 787.598 107.318C789.938 107.318 792.038 106.798 793.918 105.768C795.798 104.738 797.268 103.298 798.328 101.468C799.388 99.6378 799.918 97.5878 799.918 95.2978C799.918 93.0078 799.388 90.9178 798.328 89.0878ZM796.398 100.448C795.538 101.968 794.338 103.148 792.808 104.008C791.278 104.858 789.538 105.288 787.608 105.288C785.678 105.288 783.888 104.858 782.358 104.008C780.828 103.158 779.638 101.968 778.788 100.448C777.938 98.9378 777.518 97.2178 777.518 95.2978C777.518 93.3778 777.938 91.6678 778.788 90.1678C779.638 88.6678 780.828 87.4878 782.358 86.6378C783.888 85.7878 785.638 85.3578 787.608 85.3578C789.578 85.3578 791.278 85.7878 792.808 86.6378C794.338 87.4878 795.538 88.6778 796.398 90.1978C797.258 91.7178 797.688 93.4278 797.688 95.3478C797.688 97.2678 797.258 98.9378 796.398 100.458V100.448Z" fill="white"/>
<path fill-rule="evenodd" clip-rule="evenodd" d="M791.788 95.0681C792.608 94.4681 793.018 93.6681 793.018 92.6781C793.018 91.6881 792.618 90.8481 791.818 90.2481C791.018 89.6481 789.858 89.3481 788.338 89.3481H782.978V100.548H785.568V96.0981H786.978L790.388 100.548H793.568L789.838 95.8281C790.628 95.6781 791.298 95.4281 791.798 95.0581L791.788 95.0681ZM787.928 94.0781H785.568V91.3381H788.018C788.748 91.3381 789.308 91.4481 789.698 91.6781C790.088 91.9081 790.288 92.2581 790.288 92.7381C790.288 93.1881 790.078 93.5281 789.678 93.7481C789.268 93.9781 788.688 94.0881 787.928 94.0881V94.0781Z" fill="white"/>
</svg>
